<?xml version="1.0" standalone="no"?><!DOCTYPE svg PUBLIC "-//W3C//DTD SVG 1.1//EN" "http://www.w3.org/Graphics/SVG/1.1/DTD/svg11.dtd"><svg t="1532038689369" class="icon" style="" viewBox="0 0 1024 1024" version="1.1" xmlns="http://www.w3.org/2000/svg" p-id="4004" xmlns:xlink="http://www.w3.org/1999/xlink" width="195" height="195"><defs><style type="text/css"></style></defs><path d="M63.130318 102.500489c0-1.291412 0.503467-2.581802 1.489934-3.567245 0.985444-0.985444 2.276856-1.488911 3.567245-1.488911l31.93227 0c1.291412 0 2.582825 0.503467 3.567245 1.488911 0.984421 0.985444 1.466398 2.275833 1.466398 3.567245l0 779.332604 849.422939 0c1.293459 0 2.581802 0.50142 3.568269 1.485841 0.985444 0.984421 1.467421 2.27788 1.467421 3.566222l0 31.93227c0 1.291412-0.481977 2.581802-1.467421 3.566222-0.986467 0.98749-2.27788 1.467421-3.568269 1.467421L63.130318 923.851069 63.130318 102.500489zM371.294886 112.589264c0-3.874237 1.489934-7.747451 4.444219-10.701736 2.954285-2.954285 6.827499-4.443196 10.70276-4.443196l137.798413 0c3.89675 0 7.769964 1.488911 10.723226 4.443196 2.955308 2.954285 4.420683 6.827499 4.420683 10.701736l0 713.215768L371.294886 825.805032 371.294886 112.589264zM161.182494 322.692447c0-3.874237 1.488911-7.747451 4.444219-10.701736 2.954285-2.954285 6.826476-4.442172 10.701736-4.442172l137.798413 0c3.89675 0 7.769964 1.488911 10.724249 4.442172 2.955308 2.955308 4.420683 6.828522 4.420683 10.701736l0 503.111562L161.182494 825.804009 161.182494 322.692447zM581.407278 532.795629c0-3.872191 1.487887-7.745405 4.443196-10.701736 2.956332-2.954285 6.829546-4.441149 10.703783-4.441149l137.797389 0c3.89675 0 7.769964 1.487887 10.724249 4.441149 2.954285 2.956332 4.419659 6.829546 4.419659 10.701736l0 293.00838L581.407278 825.804009 581.407278 532.795629 581.407278 532.795629zM791.520693 742.899834c0-3.873214 1.487887-7.746428 4.443196-10.701736 2.954285-2.953262 6.829546-4.442172 10.70276-4.442172l137.798413 0c3.89675 0 7.769964 1.488911 10.723226 4.442172 2.955308 2.955308 4.421706 6.828522 4.421706 10.701736l0 82.905198L791.518646 825.805032l0-82.905198L791.520693 742.899834z" p-id="4005" fill="#ffffff"></path></svg>