<?xml version="1.0" standalone="no"?><!DOCTYPE svg PUBLIC "-//W3C//DTD SVG 1.1//EN" "http://www.w3.org/Graphics/SVG/1.1/DTD/svg11.dtd"><svg t="1534892125984" class="icon" style="" viewBox="0 0 1024 1024" version="1.1" xmlns="http://www.w3.org/2000/svg" p-id="670" xmlns:xlink="http://www.w3.org/1999/xlink" width="200" height="200"><defs><style type="text/css"></style></defs><path d="M1018.1 828.225c-6.862-34.929-70.345-53.169-133.127-53.169-0.891 0-1.768 0.03-2.674 0.042L882.299 746.75l0-52.823 0-52.823c0-39.052-67.28-59.488-133.753-59.488S614.8 602.052 614.8 641.104l0 52.823 0 52.823 0 52.838 0 52.808c0 39.052 67.274 59.491 133.747 59.491 0.897 0 1.788-0.03 2.686-0.03l0 28.336c0 39.049 67.274 59.5 133.738 59.5 66.472 0 133.771-20.451 133.771-59.5l0-52.823 0-52.826 0-6.319L1018.1 828.225 1018.1 828.225zM884.973 976.56c-67.68 0-110.86-21.542-110.86-36.366 0-3.997 3.225-8.477 9.139-12.889 25.796 12.916 63.879 19.554 101.721 19.554 37.854 0 75.945-6.638 101.75-19.554 5.914 4.412 9.139 8.892 9.139 12.889C995.863 955.018 952.668 976.56 884.973 976.56zM637.672 852.397c0-3.994 3.234-8.463 9.139-12.886 25.805 12.916 63.897 19.551 101.736 19.551 0.897 0 1.788-0.027 2.686-0.027l0 28.336 0 1.326c-0.906 0-1.765 0.069-2.686 0.069C680.867 888.766 637.672 867.221 637.672 852.397zM974.267 907.504c-4.745 2.227-10.144 4.355-16.281 6.278-18.648 5.836-43.499 9.929-73.012 9.929-29.501 0-54.349-4.093-72.992-9.929-5.556-1.741-10.555-3.637-14.958-5.628-0.465-0.221-0.87-0.429-1.323-0.65-4.975-2.322-9.139-4.772-12.448-7.232-0.763-0.581-1.493-1.148-2.17-1.729-4.388-3.747-6.805-7.482-6.924-10.883 0-0.098-0.045-0.194-0.045-0.289 0-3.997 3.225-8.466 9.121-12.889 6.57 3.291 13.914 6.167 21.855 8.63 5.142 1.589 10.522 3.014 16.102 4.26 2.233 0.51 4.501 0.981 6.79 1.422 7.306 1.398 14.874 2.546 22.598 3.389 3.613 0.399 7.267 0.733 10.925 0.996 7.768 0.581 15.622 0.87 23.468 0.87 7.854 0 15.706-0.289 23.48-0.87 13.989-1.01 27.632-2.972 40.319-5.807 14.189-3.181 27.155-7.482 37.967-12.889 5.899 4.424 9.124 8.892 9.124 12.889 0 3.994-3.228 8.474-9.142 12.901C983.409 902.731 979.251 905.181 974.267 907.504zM659.271 819.721c-4.987-2.337-9.151-4.784-12.46-7.243-5.905-4.427-9.139-8.907-9.139-12.889 0-3.997 3.234-8.477 9.124-12.889 10.811 5.407 23.784 9.709 37.982 12.889 12.677 2.835 26.345 4.769 40.334 5.795 7.759 0.566 15.599 0.856 23.435 0.856 5.833 0 11.685-0.152 17.488-0.483-3.738 3.237-6.829 6.722-9.232 10.469-3.577 5.544-5.571 11.655-5.571 18.308l0 0.012 0 1.329c-0.906 0.012-1.765 0.054-2.686 0.054-29.51 0-54.358-4.093-73.006-9.941C669.406 824.079 664.013 821.948 659.271 819.721zM637.672 746.75c0-3.982 3.234-8.474 9.133-12.886 10.803 5.407 23.757 9.706 37.955 12.886 12.674 2.835 26.33 4.784 40.319 5.795 7.753 0.581 15.614 0.87 23.468 0.87 7.854 0 15.706-0.289 23.465-0.87 13.992-1.01 27.647-2.96 40.328-5.795 14.189-3.181 27.149-7.479 37.94-12.886 5.914 4.412 9.16 8.904 9.16 12.886 0 3.997-3.237 8.477-9.142 12.889-3.309 2.474-7.473 4.921-12.451 7.258-4.745 2.215-10.141 4.343-16.278 6.266-18.648 5.848-43.508 9.941-73.024 9.941-29.522 0-54.373-4.093-73.021-9.941-6.143-1.923-11.527-4.051-16.254-6.266-4.987-2.337-9.16-4.784-12.472-7.258C640.906 755.228 637.672 750.748 637.672 746.75zM637.672 693.927c0-3.982 3.234-8.463 9.139-12.886 10.811 5.419 23.769 9.72 37.982 12.886 12.704 2.85 26.377 4.784 40.393 5.81 7.723 0.566 15.545 0.856 23.361 0.856 7.807 0 15.628-0.289 23.364-0.856 14.013-1.025 27.686-2.96 40.396-5.81 14.198-3.166 27.182-7.467 37.976-12.886 5.914 4.424 9.157 8.904 9.157 12.886 0 3.982-3.243 8.477-9.157 12.889-3.309 2.474-7.464 4.921-12.451 7.258-4.737 2.212-10.141 4.343-16.278 6.266-18.648 5.863-43.499 9.941-73.006 9.941-29.51 0-54.358-4.078-73.006-9.941-6.135-1.923-11.536-4.054-16.272-6.266-4.984-2.337-9.148-4.784-12.457-7.258C640.906 702.405 637.672 697.91 637.672 693.927zM564.191 822.833l-43.69-42.605c-12.254-11.947-31.656-11.947-43.928 0l-101.262 98.749-101.259-98.749c-12.236-11.947-31.656-11.947-43.928 0l-97.574 95.166-64.016-62.419L68.534 134.414c0-29.993 24.142-54.4 53.816-54.4 0.241 0 0.462-0.083 0.721-0.11 0.295 0.027 0.593 0.11 0.888 0.11l0.149 0c31.337 0.069 56.812 24.449 56.812 54.4 0 29.993-25.567 54.412-56.964 54.412-17.474 0-31.653 14.341-31.653 31.999s14.18 32.011 31.653 32.011l557.838 0 0 288.967 63.292 0L745.086 248.508c50.963-13.703 88.596-59.611 88.596-114.094 0-65.298-53.959-118.398-120.235-118.398L123.959 16.016c-0.28 0-0.519 0.042-0.817 0.042-0.277 0-0.537-0.042-0.793-0.042-64.589 0-117.09 53.1-117.09 118.398L5.259 826.58c0 8.698 3.482 17.009 9.664 23.039l95.67 93.27c12.233 11.947 31.674 11.947 43.928 0l97.574-95.151 101.262 98.746c12.275 11.947 31.674 11.947 43.946 0l101.241-98.746 65.647 64.025L564.191 822.833 564.191 822.833zM230.753 80.014L713.45 80.014c31.394 0 56.943 24.407 56.943 54.4s-25.549 54.412-56.943 54.412L230.753 188.826c8.609-16.329 13.458-34.831 13.458-54.412C244.211 114.818 239.362 96.304 230.753 80.014zM271.847 337.465l-70.786 0c-6.513 0-11.792 5.339-11.792 11.935l0 70.151c0 6.594 5.279 11.932 11.792 11.932l70.786 0c6.516 0 11.798-5.339 11.798-11.932L283.645 349.4C283.645 342.804 278.366 337.465 271.847 337.465zM271.847 467.271l-70.786 0c-6.513 0-11.792 5.351-11.792 11.947l0 68.711c0 6.597 5.279 11.935 11.792 11.935l70.786 0c6.516 0 11.798-5.339 11.798-11.935l0-68.711C283.645 472.622 278.366 467.271 271.847 467.271zM271.847 595.652l-70.786 0c-6.513 0-11.792 5.351-11.792 11.932l0 70.163c0 6.585 5.279 11.92 11.792 11.92l70.786 0c6.516 0 11.798-5.336 11.798-11.92l0-70.163C283.645 601.003 278.366 595.652 271.847 595.652zM532.809 337.465L327.997 337.465c-6.513 0-11.801 5.339-11.801 11.935l0 70.151c0 6.594 5.288 11.932 11.801 11.932l204.813 0c6.516 0 11.795-5.339 11.795-11.932L544.605 349.4C544.604 342.804 539.325 337.465 532.809 337.465zM532.809 467.271L327.997 467.271c-6.513 0-11.801 5.351-11.801 11.947l0 68.711c0 6.597 5.288 11.935 11.801 11.935l204.813 0c6.516 0 11.795-5.339 11.795-11.935l0-68.711C544.604 472.622 539.325 467.271 532.809 467.271zM532.809 595.652L327.997 595.652c-6.513 0-11.801 5.351-11.801 11.932l0 70.163c0 6.585 5.288 11.92 11.801 11.92l204.813 0c6.516 0 11.795-5.336 11.795-11.92l0-70.163C544.604 601.003 539.325 595.652 532.809 595.652z" fill="#ffffff" p-id="671"></path></svg>