<?xml version="1.0" standalone="no"?><!DOCTYPE svg PUBLIC "-//W3C//DTD SVG 1.1//EN" "http://www.w3.org/Graphics/SVG/1.1/DTD/svg11.dtd"><svg t="1532038378032" class="icon" style="" viewBox="0 0 1024 1024" version="1.1" xmlns="http://www.w3.org/2000/svg" p-id="1666" xmlns:xlink="http://www.w3.org/1999/xlink" width="195" height="195"><defs><style type="text/css"></style></defs><path d="M512 192a48 48 0 0 0 48-48V48a48 48 0 1 0-96 0v96a48 48 0 0 0 48 48z m240 0a48 48 0 0 0 48-48V48a48 48 0 1 0-96 0v96a48 48 0 0 0 48 48z m-480 0a48 48 0 0 0 48-48V48a48 48 0 1 0-96 0v96a48 48 0 0 0 48 48z m656-96h-80v48a96 96 0 1 1-192 0V96h-48v48a96 96 0 1 1-192 0V96h-48v48a96 96 0 1 1-192 0V96H96a48 48 0 0 0-48 48v832a48 48 0 0 0 48 48h832a48 48 0 0 0 48-48V144a48 48 0 0 0-48-48z m-120 768h-592a40 40 0 1 1 0-80h592a40 40 0 1 1 0 80zM800 672H224a48 48 0 1 1 0-96h576a48 48 0 1 1 0 96z m0-208H224a48 48 0 1 1 0-96h576a48 48 0 1 1 0 96z" fill="#ffffff" p-id="1667"></path></svg>