<?xml version="1.0" standalone="no"?><!DOCTYPE svg PUBLIC "-//W3C//DTD SVG 1.1//EN" "http://www.w3.org/Graphics/SVG/1.1/DTD/svg11.dtd"><svg t="1532037679961" class="icon" style="" viewBox="0 0 1024 1024" version="1.1" xmlns="http://www.w3.org/2000/svg" p-id="4782" xmlns:xlink="http://www.w3.org/1999/xlink" width="195" height="195"><defs><style type="text/css"></style></defs><path d="M383.256 883.264m-84.776 0a10.597 10.597 0 1 0 169.552 0 10.597 10.597 0 1 0-169.552 0Z" p-id="4783" fill="#ffffff"></path><path d="M753.192 798.496c46.8 0 84.768 37.936 84.768 84.776 0 46.808-37.968 84.776-84.768 84.776-46.84 0-84.776-37.968-84.776-84.776C668.424 836.432 706.352 798.496 753.192 798.496z" p-id="4784" fill="#ffffff"></path><path d="M969.08 333.864c-108.256 0-523.184 0-523.184 0s-30.92 7.016-30.92 40.992c0 34.048 30.92 43.928 30.92 43.928l469.08 0-26.36 89.184c-128.4 0-461.048 0-461.048 0s-28.808 6.52-28.808 38.128c0 31.752 28.808 40.992 28.808 40.992l436.728 0 0.976 0-24.736 83.416L364.504 670.504l-31.6-251.752-10.256-84.888c0 0-9.2-78.44-14.408-110.792-5.168-32.584-86.504-73.272-261.336-155.664-41.144-17.272-75.536 57.96 0 97.336l137.864 64.408c0 0 32.056 18.632 34.808 43.6 2.752 25.112 58.712 439.84 58.712 439.84s2.232 57.744 54.68 57.744c52.424 0 482.2 0 526.096 0 44.048 0 52.608-46.008 52.608-46.008l104.264-309.64C1015.952 414.68 1046.872 333.864 969.08 333.864z" p-id="4785" fill="#ffffff"></path></svg>