<?xml version="1.0" standalone="no"?><!DOCTYPE svg PUBLIC "-//W3C//DTD SVG 1.1//EN" "http://www.w3.org/Graphics/SVG/1.1/DTD/svg11.dtd"><svg t="1532036712077" class="icon" style="" viewBox="0 0 1024 1024" version="1.1" xmlns="http://www.w3.org/2000/svg" p-id="2261" xmlns:xlink="http://www.w3.org/1999/xlink" width="200" height="200"><defs><style type="text/css"></style></defs><path d="M841.142857 475.428571q0 109.142857-54 201.714286t-146.571429 146.571429-201.714286 54l-91.428571 0q-8 0-13.142857-5.142857t-5.142857-13.142857l0-349.142857-122.857143 37.714286q-1.714286 0.571429-5.142857 0.571429-5.714286 0-10.857143-3.428571-7.428571-5.714286-7.428571-14.857143l0-73.142857q0-13.142857 13.142857-17.714286l133.142857-40.571429 0-53.142857-122.857143 37.714286q-1.714286 0.571429-5.142857 0.571429-5.714286 0-10.857143-3.428571-7.428571-5.714286-7.428571-14.857143l0-73.142857q0-13.142857 13.142857-17.714286l133.142857-40.571429 0-142.857143q0-8 5.142857-13.142857t13.142857-5.142857l91.428571 0q8 0 13.142857 5.142857t5.142857 13.142857l0 103.428571 214.285714-66.285714q8.571429-2.857143 16 2.857143t7.428571 14.857143l0 73.142857q0 13.142857-13.142857 17.714286l-224.571429 69.142857 0 53.142857 214.285714-66.285714q8.571429-2.857143 16 2.857143t7.428571 14.857143l0 73.142857q0 13.142857-13.142857 17.714286l-224.571429 69.142857 0 278.285714q107.428571-7.428571 181.714286-86.285714t74.285714-187.428571q0-8 5.142857-13.142857t13.142857-5.142857l91.428571 0q8 0 13.142857 5.142857t5.142857 13.142857z" p-id="2262" fill="#ffffff"></path></svg>