<?xml version="1.0" standalone="no"?><!DOCTYPE svg PUBLIC "-//W3C//DTD SVG 1.1//EN" "http://www.w3.org/Graphics/SVG/1.1/DTD/svg11.dtd"><svg t="1532038291092" class="icon" style="" viewBox="0 0 1152 1024" version="1.1" xmlns="http://www.w3.org/2000/svg" p-id="1236" xmlns:xlink="http://www.w3.org/1999/xlink" width="219.375" height="195"><defs><style type="text/css"></style></defs><path d="M768 770.612l0-52.78c70.498-39.728 128-138.772 128-237.832 0-159.058 0-288-192-288s-192 128.942-192 288c0 99.06 57.502 198.104 128 237.832l0 52.78c-217.102 17.748-384 124.42-384 253.388l896 0c0-128.968-166.898-235.64-384-253.388z" p-id="1237" fill="#ffffff"></path><path d="M327.196 795.328c55.31-36.15 124.08-63.636 199.788-80.414-15.054-17.784-28.708-37.622-40.492-59.02-30.414-55.234-46.492-116.058-46.492-175.894 0-86.042 0-167.31 30.6-233.762 29.706-64.504 83.128-104.496 159.222-119.488-16.914-76.48-61.94-126.75-181.822-126.75-192 0-192 128.942-192 288 0 99.06 57.502 198.104 128 237.832l0 52.78c-217.102 17.748-384 124.42-384 253.388l279.006 0c14.518-12.91 30.596-25.172 48.19-36.672z" p-id="1238" fill="#ffffff"></path></svg>