<?xml version="1.0" standalone="no"?><!DOCTYPE svg PUBLIC "-//W3C//DTD SVG 1.1//EN" "http://www.w3.org/Graphics/SVG/1.1/DTD/svg11.dtd"><svg t="1532038055691" class="icon" style="" viewBox="0 0 1024 1024" version="1.1" xmlns="http://www.w3.org/2000/svg" p-id="8762" xmlns:xlink="http://www.w3.org/1999/xlink" width="195" height="195"><defs><style type="text/css"></style></defs><path d="M383.99232 735.99552c0-151.221296 95.864963-280.48847 230.026759-330.192436 16.281274-36.535589 25.968121-77.167097 25.968121-117.798604 0-159.064979 0-288.00448-191.99616-288.00448s-191.99616 128.939501-191.99616 288.00448c0 99.059779 57.50669 198.099078 127.99744 237.829483l0 52.775904c-217.104138 17.755805-383.99232 124.413512-383.99232 253.373493l397.304054 0c-8.662867-30.535069-13.311734-62.728985-13.311734-96.00832z" p-id="8763" fill="#ffffff"></path><path d="M735.99552 447.99104c-159.064979 0-288.00448 128.939501-288.00448 288.00448s128.939501 288.00448 288.00448 288.00448c159.044499 0 288.00448-128.939501 288.00448-288.00448s-128.939501-288.00448-288.00448-288.00448zM895.98208 767.98464l-127.99744 0 0 127.99744-63.99872 0 0-127.99744-127.99744 0 0-63.99872 127.99744 0 0-127.99744 63.99872 0 0 127.99744 127.99744 0 0 63.99872z" p-id="8764" fill="#ffffff"></path></svg>